<svg xmlns="http://www.w3.org/2000/svg" viewBox="0 0 80.24 58.05"><defs><style>.cls-1{fill:#4679a3;}.cls-2{fill:#2c4d6d;}</style></defs><title>footerlogo_1</title><g id="Layer_2" data-name="Layer 2"><g id="Layer_1-2" data-name="Layer 1"><path class="cls-1" d="M38.09,0a28.28,28.28,0,0,1,7.15,1.68,29,29,0,0,1,6.45,3.66,29.71,29.71,0,0,1,5.25,5.32,30.77,30.77,0,0,1,3.62,6.55,30.13,30.13,0,0,1,1.69,7.3A27.82,27.82,0,0,1,61.92,32,26,26,0,0,1,55.38,45a29.88,29.88,0,0,0,5.28-13.27A28.74,28.74,0,0,0,59,17.8a30.21,30.21,0,0,0-3.34-6.24,31.71,31.71,0,0,0-4.8-5.23,31.78,31.78,0,0,0-6-3.92A33.56,33.56,0,0,0,38.09,0Z"/><path class="cls-1" d="M28.47.33A28.47,28.47,0,1,0,56.94,28.8,28.51,28.51,0,0,0,28.47.33Z"/><path class="cls-1" d="M46.86,53.25a25.76,25.76,0,0,1,7.37-4.77,25.46,25.46,0,0,1,8.53-2.11,26.61,26.61,0,0,1,8.93.89,30.73,30.73,0,0,1,4.36,1.49c1.43.61,2.78,1.38,4.19,2.1l-7.44,7.2C61.86,49.73,54.09,51,46.86,53.25Z"/><path class="cls-2" d="M22.52,31a.81.81,0,0,1-.26-1.58L36.4,24.67a.81.81,0,0,1,1,.52.82.82,0,0,1-.51,1L22.78,31A.82.82,0,0,1,22.52,31Z"/><path class="cls-2" d="M36,38.28a.83.83,0,0,1-.34-.07.81.81,0,0,1-.4-1.08l3.86-8.48a.81.81,0,0,1,1.08-.4.82.82,0,0,1,.41,1.08L36.69,37.8A.82.82,0,0,1,36,38.28Z"/><path class="cls-2" d="M18.59,26.39a.84.84,0,0,1-.37-.09.81.81,0,0,1-.36-1.09l1.52-3.05a.81.81,0,1,1,1.46.72l-1.52,3.06A.83.83,0,0,1,18.59,26.39Z"/><path class="cls-2" d="M37.12,21.8a.77.77,0,0,1-.36-.09l-5-2.47a.83.83,0,0,1-.37-1.1.81.81,0,0,1,1.09-.36l5,2.47a.82.82,0,0,1-.36,1.55Z"/><path class="cls-2" d="M26.82,41.06a.78.78,0,0,1-.46-.14l-5.24-3.57A.81.81,0,0,1,22,36l5.25,3.58a.81.81,0,0,1-.46,1.48Z"/><path class="cls-2" d="M31.16,12.14a7.44,7.44,0,1,0-7.06,9.8,7.5,7.5,0,0,0,2.37-.39,7.44,7.44,0,0,0,4.69-9.41Z"/><path class="cls-2" d="M46,22.31a3.94,3.94,0,1,0-3.74,5.2,3.86,3.86,0,0,0,1.25-.21,4,4,0,0,0,2.28-2A3.89,3.89,0,0,0,46,22.31Z"/><path class="cls-2" d="M35.44,39.37a5.63,5.63,0,1,0-2.52,10.68,5.51,5.51,0,0,0,1.79-.3,5.63,5.63,0,0,0,.73-10.38Z"/><path class="cls-2" d="M17.81,27.14A6.19,6.19,0,0,0,9.5,29.92a6.2,6.2,0,0,0,11.09,5.53A6.19,6.19,0,0,0,17.81,27.14Z"/></g></g></svg>