<?xml version="1.0" encoding="utf-8"?>
<!-- Generator: Adobe Illustrator 22.0.1, SVG Export Plug-In . SVG Version: 6.00 Build 0)  -->
<svg version="1.1" id="Layer_1" xmlns="http://www.w3.org/2000/svg" xmlns:xlink="http://www.w3.org/1999/xlink" x="0px" y="0px"
	 viewBox="0 0 137.9 35.1" style="enable-background:new 0 0 137.9 35.1;" xml:space="preserve">
<style type="text/css">
	.st0{fill:#272B2D;}
	.st1{fill:#FFFFFF;}
	.st2{fill:#5F6366;}
	.st3{fill:none;stroke:#5F6366;stroke-width:1.15;stroke-miterlimit:10;}
	.st4{fill:#C00000;}
	.st5{fill:#02C000;}
	.st6{fill:#E0DF02;}
	.st7{fill:#2C4D6D;}
</style>
<title>Asset 1</title>
<g>
	<g id="Layer_2_1_">
		<g id="Layer_1-2">
			<path class="st0" d="M6.2,31.5c0,0.5-0.3,1-0.7,1.4c-0.4,0.4-1,0.5-1.5,0.5c-0.6,0-1.2-0.2-1.6-0.7c-0.4-0.5-0.6-1.2-0.6-1.9v-1
				c0-0.7,0.2-1.3,0.6-1.9c0.4-0.5,1-0.7,1.6-0.7c0.5,0,1.1,0.1,1.5,0.5c0.4,0.4,0.6,0.9,0.7,1.4H5.7c0-0.4-0.2-0.8-0.5-1.1
				c-0.3-0.3-0.8-0.4-1.2-0.4c-0.5,0-1,0.2-1.3,0.6c-0.3,0.5-0.5,1-0.5,1.6v1c0,0.6,0.1,1.1,0.5,1.6C3,32.8,3.5,33,4,33
				c0.4,0,0.8-0.1,1.2-0.4c0.3-0.3,0.5-0.7,0.5-1.1L6.2,31.5z"/>
			<path class="st0" d="M7,31.1c0-0.6,0.2-1.2,0.5-1.6C7.9,29,8.4,28.8,9,28.8c0.5,0,1.1,0.2,1.4,0.6c0.4,0.5,0.6,1,0.5,1.6v0.1
				c0,0.6-0.2,1.2-0.5,1.6c-0.4,0.4-0.9,0.6-1.4,0.6c-0.5,0-1.1-0.2-1.4-0.6c-0.4-0.5-0.6-1-0.6-1.6V31.1z M7.5,31.2
				c0,0.5,0.1,0.9,0.4,1.3C8.1,32.9,8.6,33,9,33c0.4,0,0.8-0.2,1.1-0.5c0.3-0.4,0.4-0.8,0.4-1.3v-0.1c0-0.5-0.2-0.9-0.5-1.3
				c-0.2-0.3-0.6-0.5-1-0.5c-0.4,0-0.8,0.2-1.1,0.5c-0.3,0.4-0.4,0.8-0.4,1.3L7.5,31.2z"/>
			<path class="st0" d="M12.4,28.9v0.8l0,0c0.1-0.3,0.3-0.5,0.6-0.7c0.3-0.2,0.6-0.2,0.9-0.2c0.4,0,0.8,0.1,1.1,0.4
				c0.3,0.4,0.4,0.9,0.4,1.4v2.7h-0.5v-2.7c0-0.4-0.1-0.7-0.3-1c-0.2-0.2-0.5-0.3-0.8-0.3c-0.3,0-0.6,0.1-0.8,0.3
				c-0.2,0.2-0.4,0.5-0.5,0.7v3.1h-0.5v-4.4H12.4z"/>
			<path class="st0" d="M16.9,33.4v-4h-0.7v-0.4h0.7v-0.6c-0.1-0.7,0.4-1.4,1.2-1.5c0.1,0,0.2,0,0.3,0c0.2,0,0.4,0,0.5,0.1
				c0.2,0,0.4,0.1,0.6,0.2l-0.1,0.4c-0.2-0.1-0.3-0.1-0.5-0.2c-0.2,0-0.4-0.1-0.5,0c-0.3,0-0.6,0.1-0.8,0.3
				c-0.2,0.2-0.3,0.5-0.2,0.8v0.6h1v0.4h-1v4H16.9z M19.8,33.4h-0.5v-4.4h0.5V33.4z"/>
			<path class="st0" d="M20.9,31.2c0-0.6,0.1-1.2,0.4-1.7c0.3-0.4,0.8-0.7,1.3-0.6c0.6,0,1.1,0.3,1.4,0.7l0,0V27h0.5v6.4H24v-0.6
				l0,0c-0.1,0.2-0.3,0.4-0.6,0.5c-0.3,0.1-0.5,0.2-0.8,0.2c-0.5,0-1-0.2-1.2-0.6c-0.3-0.5-0.5-1-0.4-1.6L20.9,31.2z M21.4,31.3
				c0,0.4,0.1,0.9,0.3,1.3c0.2,0.3,0.6,0.5,1,0.5c0.3,0,0.6-0.1,0.8-0.2c0.2-0.1,0.4-0.4,0.5-0.6v-2.1c-0.1-0.2-0.3-0.5-0.5-0.6
				c-0.2-0.2-0.5-0.2-0.8-0.2c-0.4,0-0.8,0.2-1,0.5C21.5,30.2,21.4,30.7,21.4,31.3L21.4,31.3z"/>
			<path class="st0" d="M27.5,33.4c-0.5,0-1.1-0.2-1.4-0.6c-0.4-0.4-0.6-1-0.5-1.6V31c0-0.6,0.2-1.1,0.5-1.5
				c0.3-0.4,0.8-0.6,1.3-0.6c0.5,0,1,0.2,1.3,0.5c0.3,0.4,0.5,0.9,0.5,1.4v0.4H26v0.1c0,0.5,0.1,0.9,0.4,1.2
				c0.3,0.3,0.7,0.5,1.1,0.5c0.5,0,0.9-0.2,1.3-0.5l0.2,0.3c-0.2,0.2-0.4,0.3-0.6,0.4C28.1,33.4,27.8,33.4,27.5,33.4z M27.4,29.3
				c-0.4,0-0.7,0.1-0.9,0.4C26.2,30,26,30.3,26,30.7h2.6v-0.1c0-0.4-0.1-0.7-0.3-1C28,29.4,27.7,29.2,27.4,29.3z"/>
			<path class="st0" d="M30.5,28.9v0.8l0,0c0.1-0.3,0.3-0.5,0.6-0.7c0.3-0.2,0.6-0.2,0.9-0.2c0.4,0,0.8,0.1,1.1,0.4
				c0.3,0.4,0.4,0.9,0.4,1.4v2.7H33v-2.7c0-0.4-0.1-0.7-0.3-1c-0.2-0.2-0.5-0.3-0.8-0.3c-0.3,0-0.6,0.1-0.8,0.3
				c-0.2,0.2-0.4,0.5-0.5,0.7v3.1h-0.5v-4.4H30.5z"/>
			<path class="st0" d="M36.4,33c0.3,0,0.6-0.1,0.8-0.3c0.2-0.2,0.4-0.5,0.4-0.8h0.5c0,0.4-0.2,0.8-0.5,1c-0.3,0.3-0.8,0.4-1.2,0.4
				c-0.5,0-1-0.2-1.4-0.6c-0.3-0.5-0.5-1-0.5-1.6v-0.2c0-0.6,0.1-1.1,0.5-1.6c0.7-0.7,1.8-0.8,2.6-0.2c0.3,0.3,0.5,0.7,0.5,1.1h-0.5
				c0-0.3-0.1-0.6-0.4-0.9c-0.2-0.2-0.5-0.3-0.9-0.3c-0.4,0-0.8,0.2-1.1,0.5c-0.2,0.4-0.4,0.8-0.3,1.3v0.2c0,0.5,0.1,0.9,0.3,1.3
				C35.6,32.8,36,33,36.4,33z"/>
			<path class="st0" d="M40.8,33.4c-0.5,0-1.1-0.2-1.4-0.6c-0.4-0.4-0.6-1-0.5-1.6V31c0-0.6,0.2-1.1,0.5-1.6
				c0.3-0.4,0.8-0.6,1.3-0.6c0.5,0,1,0.2,1.3,0.5c0.3,0.4,0.5,0.9,0.5,1.4v0.4h-3.1v0.1c0,0.5,0.1,0.9,0.4,1.2
				c0.3,0.3,0.7,0.5,1.1,0.5c0.2,0,0.5,0,0.7-0.1c0.2-0.1,0.4-0.2,0.6-0.4l0.2,0.3c-0.2,0.2-0.4,0.3-0.6,0.4
				C41.4,33.4,41.1,33.4,40.8,33.4z M40.7,29.3c-0.4,0-0.7,0.1-0.9,0.4c-0.3,0.3-0.4,0.7-0.4,1.1h2.6v-0.1c0-0.4-0.1-0.7-0.3-1
				C41.4,29.4,41,29.2,40.7,29.3z"/>
			<path class="st0" d="M46,27.7h-0.5V27H46V27.7z M46,33.4h-0.5v-4.4H46V33.4z"/>
			<path class="st0" d="M47.8,28.9v0.8l0,0c0.1-0.3,0.3-0.5,0.6-0.7c0.3-0.2,0.5-0.2,0.8-0.2c0.4,0,0.8,0.1,1.1,0.4
				c0.3,0.4,0.4,0.9,0.4,1.4v2.7h-0.5v-2.7c0.1-0.4,0-0.7-0.2-1.1c-0.2-0.2-0.5-0.3-0.8-0.3c-0.3,0-0.6,0.1-0.8,0.3
				c-0.2,0.2-0.4,0.5-0.5,0.7v3.1h-0.5v-4.4H47.8z"/>
			<path class="st0" d="M58.5,33.4h-0.5l-3.4-5.1l0,0v5.1h-0.5v-6h0.5l3.4,5.1l0,0v-5.1h0.5V33.4z"/>
			<path class="st0" d="M61.7,33.4c-0.5,0-1.1-0.2-1.4-0.6c-0.4-0.4-0.6-1-0.5-1.6V31c0-0.6,0.2-1.1,0.5-1.6
				c0.3-0.4,0.8-0.6,1.3-0.6c0.5,0,1,0.2,1.3,0.5c0.3,0.4,0.5,0.9,0.5,1.4v0.4h-3.1v0.1c0,0.5,0.1,0.9,0.4,1.2
				c0.3,0.3,0.7,0.5,1.1,0.5c0.2,0,0.5,0,0.7-0.1c0.2-0.1,0.4-0.2,0.6-0.4l0.2,0.3c-0.2,0.2-0.4,0.3-0.6,0.4
				C62.3,33.4,62,33.4,61.7,33.4z M61.6,29.3c-0.4,0-0.7,0.1-0.9,0.4c-0.3,0.3-0.4,0.7-0.4,1.1h2.6v-0.1c0-0.4-0.1-0.7-0.3-1
				C62.3,29.4,61.9,29.2,61.6,29.3z"/>
			<path class="st0" d="M65,27.8v1.1h0.9v0.4H65v2.9c0,0.2,0,0.4,0.2,0.6c0.1,0.1,0.2,0.2,0.4,0.2h0.2l0.3,0l0.1,0.4
				c-0.1,0-0.2,0.1-0.3,0.1c-0.1,0-0.2,0-0.3,0c-0.3,0-0.5-0.1-0.7-0.3c-0.2-0.3-0.3-0.6-0.2-0.9v-2.9h-0.7v-0.4h0.7v-1.1H65z"/>
			<path class="st0" d="M67.9,31.9l0.2,0.8l0,0l0.2-0.8l1-3h0.4l0.9,3l0.2,0.8l0,0l0.2-0.8l0.8-3h0.5l-1.3,4.4h-0.4l-1-3l-0.2-0.8
				l0,0l-0.2,0.8l-1,3h-0.4l-1.3-4.4h0.5L67.9,31.9z"/>
			<path class="st0" d="M73,31.1c0-0.6,0.2-1.2,0.5-1.6c0.8-0.8,2-0.8,2.8,0c0,0,0,0,0,0c0.4,0.5,0.6,1,0.5,1.6v0.1
				c0,0.6-0.2,1.2-0.5,1.6c-0.4,0.4-0.9,0.6-1.4,0.6c-0.5,0-1.1-0.2-1.4-0.6c-0.4-0.5-0.5-1-0.5-1.6V31.1z M73.5,31.2
				c0,0.5,0.1,0.9,0.4,1.3c0.3,0.3,0.7,0.5,1.1,0.5c0.4,0,0.8-0.2,1.1-0.5c0.3-0.4,0.4-0.8,0.4-1.3v-0.1c0-0.5-0.1-0.9-0.4-1.3
				c-0.3-0.3-0.7-0.5-1.1-0.5c-0.4,0-0.8,0.2-1.1,0.5c-0.3,0.4-0.4,0.8-0.4,1.3L73.5,31.2z"/>
			<path class="st0" d="M80,29.4h-0.4c-0.3,0-0.6,0.1-0.8,0.3c-0.2,0.2-0.3,0.4-0.4,0.7v3.1H78v-4.5h0.4l0.1,0.7l0,0l0,0
				c0.1-0.3,0.3-0.5,0.5-0.6c0.2-0.1,0.5-0.2,0.8-0.2h0.2h0.2L80,29.4z"/>
			<path class="st0" d="M81.9,31.2h-0.6v2.2h-0.5V27h0.5v3.8h0.5l1.7-1.9h0.6l-1.8,2l2,2.4h-0.6L81.9,31.2z"/>
			<path class="st0" d="M87.7,27.4l2.2,5.3l2.2-5.3h0.7v6h-0.5v-2.7v-2.6l0,0l-2.2,5.3h-0.3l-2.2-5.2l0,0v2.6v2.6h-0.5v-6L87.7,27.4
				z"/>
			<path class="st0" d="M95.9,33.4c-0.5,0-1.1-0.2-1.4-0.6c-0.4-0.4-0.6-1-0.6-1.6V31c0-0.6,0.2-1.1,0.6-1.6
				c0.3-0.4,0.8-0.6,1.3-0.6c0.5,0,1,0.2,1.3,0.5c0.3,0.4,0.5,0.9,0.5,1.4v0.4h-3.1v0.1c0,0.5,0.1,0.9,0.4,1.2
				c0.3,0.3,0.7,0.5,1.1,0.5c0.2,0,0.5,0,0.7-0.1c0.2-0.1,0.4-0.2,0.6-0.4l0.2,0.3c-0.2,0.2-0.4,0.3-0.6,0.4
				C96.5,33.4,96.2,33.4,95.9,33.4z M95.8,29.3c-0.4,0-0.7,0.1-0.9,0.4c-0.3,0.3-0.4,0.7-0.4,1.1h2.6v-0.1c0-0.4-0.1-0.7-0.3-1
				C96.5,29.4,96.2,29.2,95.8,29.3z"/>
			<path class="st0" d="M99.2,27.8v1.1h0.9v0.4h-0.9v2.9c0,0.2,0,0.4,0.1,0.6c0.1,0.1,0.2,0.2,0.4,0.2h0.2h0.2l0.1,0.4
				c-0.1,0-0.2,0.1-0.3,0.1c-0.1,0-0.2,0-0.3,0c-0.3,0-0.5-0.1-0.7-0.3c-0.2-0.3-0.3-0.6-0.2-0.9v-2.9H98v-0.4h0.7v-1.1H99.2z"/>
			<path class="st0" d="M104,33.4c0-0.2-0.1-0.3-0.1-0.4s0-0.2,0-0.3l0,0c-0.2,0.2-0.4,0.4-0.7,0.6c-0.3,0.2-0.6,0.2-0.9,0.2
				c-0.4,0-0.7-0.1-1-0.3c-0.2-0.2-0.4-0.6-0.3-0.9c0-0.4,0.2-0.8,0.5-1c0.4-0.3,0.9-0.4,1.4-0.4h1v-0.5c0-0.3-0.1-0.6-0.3-0.7
				c-0.2-0.2-0.5-0.3-0.9-0.3c-0.3,0-0.6,0.1-0.8,0.3c-0.2,0.1-0.3,0.4-0.3,0.6h-0.5c0-0.4,0.2-0.7,0.5-0.9c0.3-0.3,0.8-0.4,1.2-0.4
				c0.4,0,0.9,0.1,1.2,0.4c0.3,0.3,0.5,0.7,0.4,1.1v2.2c0,0.1,0,0.3,0,0.5c0,0.1,0.1,0.3,0.1,0.4H104z M102.4,33
				c0.3,0,0.7-0.1,0.9-0.2c0.3-0.1,0.5-0.4,0.6-0.6v-0.9h-1c-0.4,0-0.8,0.1-1.1,0.3c-0.2,0.2-0.4,0.4-0.4,0.7c0,0.2,0.1,0.4,0.2,0.6
				C101.9,32.9,102.1,33,102.4,33z"/>
			<path class="st0" d="M107.2,30.9h-2v-0.4h2V30.9z"/>
			<path class="st0" d="M111.4,31.7h-2.7l-0.6,1.7h-0.5l2.3-6h0.5l2.2,6h-0.5L111.4,31.7z M108.9,31.3h2.4l-1.2-3.2L108.9,31.3z"/>
			<path class="st0" d="M113.8,28.9v0.8l0,0c0.1-0.3,0.3-0.5,0.6-0.7c0.3-0.2,0.5-0.2,0.8-0.2c0.4,0,0.8,0.1,1.1,0.4
				c0.3,0.4,0.4,0.9,0.4,1.4v2.7h-0.5v-2.7c0-0.4-0.1-0.7-0.3-1c-0.2-0.2-0.5-0.3-0.8-0.3c-0.3,0-0.6,0.1-0.8,0.3
				c-0.2,0.2-0.4,0.4-0.5,0.7v3.1h-0.5v-4.4H113.8z"/>
			<path class="st0" d="M120.8,33.4c0-0.2-0.1-0.3-0.1-0.4c0-0.1,0-0.2,0-0.3l0,0c-0.2,0.2-0.4,0.4-0.7,0.6
				c-0.3,0.2-0.6,0.2-0.9,0.2c-0.4,0-0.7-0.1-1-0.3c-0.2-0.2-0.4-0.6-0.3-0.9c0-0.4,0.2-0.8,0.5-1c0.4-0.3,0.9-0.4,1.4-0.4h1v-0.5
				c0-0.3-0.1-0.6-0.3-0.7c-0.2-0.2-0.5-0.3-0.9-0.3c-0.3,0-0.6,0.1-0.8,0.3c-0.2,0.1-0.3,0.4-0.3,0.6H118c0-0.4,0.2-0.7,0.5-0.9
				c0.3-0.3,0.8-0.4,1.2-0.4c0.4,0,0.9,0.1,1.2,0.4c0.3,0.3,0.5,0.7,0.4,1.1v2.2c0,0.1,0,0.3,0,0.5c0,0.1,0.1,0.3,0.1,0.4H120.8z
				 M119.2,33c0.3,0,0.7-0.1,0.9-0.2c0.3-0.1,0.5-0.4,0.6-0.6v-0.9h-1c-0.4,0-0.8,0.1-1.1,0.3c-0.2,0.2-0.4,0.4-0.4,0.7
				c0,0.2,0.1,0.4,0.2,0.6C118.7,32.9,119,33,119.2,33z"/>
			<path class="st0" d="M123.1,33.4h-0.5V27h0.5V33.4z"/>
			<path class="st0" d="M125.7,32.2l0.2,0.5l0,0l1.3-3.8h0.6l-1.9,5.1c-0.1,0.3-0.3,0.5-0.4,0.8c-0.2,0.2-0.5,0.3-0.8,0.3h-0.2h-0.2
				l0.1-0.4h0.2h0.2c0.2,0,0.4-0.1,0.5-0.2c0.1-0.2,0.3-0.4,0.3-0.6l0.2-0.6l-1.7-4.4h0.5L125.7,32.2z"/>
			<path class="st0" d="M131.2,32.2c0-0.2-0.1-0.4-0.2-0.5c-0.3-0.2-0.6-0.3-0.9-0.4c-0.4-0.1-0.8-0.2-1.2-0.5
				c-0.2-0.2-0.4-0.5-0.4-0.8c0-0.3,0.2-0.7,0.4-0.9c0.3-0.2,0.7-0.4,1.1-0.4c0.4,0,0.9,0.1,1.2,0.4c0.3,0.2,0.4,0.6,0.4,1h-0.5
				c0-0.2-0.1-0.5-0.3-0.6c-0.2-0.2-0.5-0.3-0.8-0.3c-0.3,0-0.6,0.1-0.8,0.2c-0.2,0.1-0.3,0.3-0.3,0.5c0,0.2,0.1,0.4,0.2,0.5
				c0.3,0.2,0.6,0.3,0.9,0.4c0.4,0.1,0.8,0.2,1.2,0.5c0.3,0.2,0.4,0.5,0.4,0.8c0,0.4-0.2,0.7-0.4,0.9c-0.4,0.2-0.8,0.4-1.2,0.3
				c-0.5,0-0.9-0.1-1.3-0.4c-0.3-0.2-0.5-0.6-0.5-0.9h0.5c0,0.3,0.1,0.6,0.4,0.7c0.3,0.1,0.5,0.2,0.8,0.2c0.3,0,0.6-0.1,0.9-0.2
				C131,32.6,131.2,32.4,131.2,32.2z"/>
			<path class="st0" d="M133.3,27.7h-0.5V27h0.5V27.7z M133.3,33.4h-0.5v-4.4h0.5V33.4z"/>
			<path class="st0" d="M137.3,32.2c0-0.2-0.1-0.4-0.2-0.5c-0.3-0.2-0.6-0.3-0.9-0.4c-0.4-0.1-0.8-0.2-1.2-0.5
				c-0.3-0.2-0.4-0.5-0.4-0.8c0-0.3,0.2-0.7,0.4-0.9c0.3-0.2,0.7-0.4,1.1-0.4c0.4,0,0.9,0.1,1.2,0.4c0.3,0.2,0.4,0.6,0.4,1h-0.5
				c0-0.2-0.1-0.5-0.3-0.6c-0.2-0.2-0.5-0.3-0.8-0.3c-0.3,0-0.6,0.1-0.8,0.2c-0.2,0.1-0.3,0.3-0.3,0.5c0,0.2,0.1,0.4,0.2,0.5
				c0.3,0.2,0.6,0.3,0.9,0.4c0.4,0.1,0.8,0.2,1.2,0.5c0.3,0.2,0.4,0.5,0.4,0.8c0,0.4-0.1,0.7-0.4,0.9c-0.8,0.5-1.7,0.4-2.5,0
				c-0.3-0.2-0.5-0.6-0.5-0.9h0.5c0,0.3,0.1,0.5,0.4,0.7c0.3,0.1,0.6,0.2,0.9,0.2c0.3,0,0.6-0.1,0.8-0.2
				C137.3,32.7,137.4,32.4,137.3,32.2z"/>
			
				<image style="overflow:visible;opacity:0.15;enable-background:new    ;" width="14" height="21" xlink:href="E399E432740F0B07.png"  transform="matrix(0.9286 0 0 0.9286 14 0.25)">
			</image>
			<path class="st1" d="M15.2,1.4c5.5,0.9,9.3,6,8.5,11.6c-0.3,1.8-1,3.5-2.2,4.9"/>
			<path class="st2" d="M15.2,1.4c0.9,0.1,1.8,0.3,2.6,0.6c0.8,0.4,1.6,0.8,2.4,1.3c1.4,1.1,2.6,2.6,3.2,4.3
				c0.6,1.7,0.8,3.6,0.5,5.4c-0.3,1.8-1.1,3.4-2.4,4.8c1-1.4,1.7-3.1,1.9-4.8c0.2-1.7,0-3.5-0.6-5.1c-0.3-0.8-0.7-1.6-1.2-2.3
				c-0.5-0.7-1.1-1.3-1.8-1.9C18.5,2.6,16.9,1.8,15.2,1.4z"/>
			
				<image style="overflow:visible;opacity:0.15;enable-background:new    ;" width="26" height="26" xlink:href="E399E432740F0B05.png"  transform="matrix(0.9615 0 0 0.9615 0 1.682073e-05)">
			</image>
			<circle class="st2" cx="11.7" cy="11.9" r="9.8"/>
			<circle class="st3" cx="11.7" cy="11.9" r="9.8"/>
			
				<image style="overflow:visible;opacity:0.15;enable-background:new    ;" width="17" height="9" xlink:href="E399E432740F0B0B.png"  transform="matrix(0.8889 0 0 0.8889 17.4444 17)">
			</image>
			<path class="st2" d="M18.4,20.9c0.8-0.7,1.7-1.3,2.7-1.7c1-0.4,2-0.7,3.1-0.8c1.1-0.1,2.2,0,3.3,0.3c0.5,0.1,1.1,0.3,1.6,0.5
				c0.5,0.2,1,0.5,1.5,0.8l-2.7,2.6C23.9,19.6,21,20,18.4,20.9z"/>
			
				<image style="overflow:visible;opacity:0.15;enable-background:new    ;" width="19" height="21" xlink:href="E399E432740F0B0D.png"  transform="matrix(0.9474 0 0 0.9474 3 2.0526)">
			</image>
			<path class="st4" d="M9.5,12.7c-0.1,0-0.2-0.1-0.3-0.2c-0.1-0.2,0-0.3,0.2-0.4c0,0,0,0,0,0l5.2-1.7c0.1-0.1,0.3,0,0.4,0.1
				s0,0.3-0.1,0.4c0,0-0.1,0-0.1,0l-5.2,1.7L9.5,12.7z"/>
			<path class="st5" d="M14.4,15.4c0,0-0.1,0-0.1,0c-0.1-0.1-0.2-0.2-0.1-0.4l1.4-3.1c0.1-0.1,0.2-0.2,0.4-0.2c0,0,0,0,0,0
				c0.1,0.1,0.2,0.2,0.2,0.4l-1.4,3.1C14.6,15.3,14.5,15.4,14.4,15.4z"/>
			<path class="st5" d="M8.1,11H7.9c-0.1-0.1-0.2-0.3-0.1-0.4l0.6-1.1c0.1-0.1,0.2-0.2,0.4-0.1c0,0,0,0,0,0c0.1,0.1,0.2,0.2,0.1,0.4
				c0,0,0,0,0,0l-0.6,1.1C8.3,11,8.2,11,8.1,11z"/>
			<path class="st5" d="M14.8,9.4c0,0-0.1,0-0.1,0l-1.8-0.9c-0.1-0.1-0.2-0.3-0.1-0.4c0.1-0.1,0.3-0.2,0.4-0.1L15,8.8
				c0.1,0.1,0.2,0.3,0.1,0.4C15.1,9.3,15,9.4,14.8,9.4z"/>
			<path class="st6" d="M11.1,16.4c-0.1,0-0.1,0-0.2,0L9,15.1c-0.1-0.1-0.2-0.3-0.1-0.4c0.1-0.1,0.3-0.2,0.4-0.1l1.9,1.3
				c0.1,0.1,0.2,0.3,0.1,0.4C11.3,16.4,11.2,16.4,11.1,16.4z"/>
			<path class="st1" d="M12.6,5.8c-0.5-1.4-2-2.2-3.4-1.7C8.5,4.4,8,4.8,7.6,5.5C7,6.8,7.5,8.4,8.8,9.1c0,0,0,0,0,0
				c0.4,0.2,0.8,0.3,1.2,0.3c0.3,0,0.6,0,0.9-0.1C12.4,8.8,13.1,7.3,12.6,5.8z"/>
			<path class="st1" d="M18.1,9.6c-0.1-0.4-0.4-0.7-0.7-0.8c-0.7-0.3-1.6-0.1-1.9,0.6c-0.4,0.7-0.1,1.6,0.6,1.9
				c0.2,0.1,0.4,0.2,0.6,0.2c0.5,0,1.1-0.3,1.3-0.8C18.2,10.3,18.2,9.9,18.1,9.6z"/>
			<path class="st1" d="M14.2,15.8c-0.5-0.2-1.1-0.3-1.6-0.1c-0.5,0.2-0.9,0.5-1.2,1c-0.2,0.5-0.3,1.1-0.1,1.6
				c0.2,0.5,0.5,0.9,1,1.2c0.3,0.1,0.6,0.2,0.9,0.2c0.8,0,1.5-0.4,1.8-1.1c0.2-0.5,0.3-1,0.1-1.5C15.1,16.5,14.7,16,14.2,15.8z"/>
			<path class="st1" d="M7.8,11.3c-1.1-0.5-2.4-0.1-3,1c-0.5,1.1-0.1,2.4,1,3c0.3,0.2,0.7,0.2,1,0.2c1.2,0,2.3-1,2.3-2.3
				C9,12.4,8.5,11.7,7.8,11.3L7.8,11.3z"/>
			<path class="st7" d="M49.5,17.7c0.3,0,0.5,0.2,0.5,0.6s-0.2,0.6-0.7,1c-0.7,0.5-1.5,0.9-2.2,1.1c-1.2,0.4-2.4,0.5-3.7,0.5
				c-1.3,0-2.5-0.2-3.7-0.7c-1.1-0.4-2.2-1.1-3-1.9c-1.8-1.8-2.7-4.2-2.6-6.7c0-1.2,0.2-2.5,0.7-3.6c0.5-1.1,1.2-2,2.1-2.8
				c1.9-1.7,4.4-2.6,7-2.5c1.4,0,2.8,0.2,4.2,0.8c1.3,0.6,1.9,1,1.9,1.4c0,0.2-0.1,0.3-0.2,0.4c-0.1,0.1-0.2,0.2-0.3,0.2
				c-0.3,0-0.6-0.1-0.7-0.4c-0.3-0.3-0.5-0.5-0.9-0.7c-0.4-0.2-0.8-0.3-1.3-0.5c-0.8-0.3-1.6-0.4-2.5-0.4c-0.6,0-1.2,0-1.9,0.1v16.2
				c0.5,0.1,1,0.1,1.6,0.1c0.5,0,1,0,1.4-0.1c0.5-0.1,0.9-0.2,1.4-0.3c0.9-0.2,1.7-0.7,2.3-1.3c0.1-0.2,0.3-0.3,0.4-0.5
				C49.2,17.8,49.3,17.7,49.5,17.7z"/>
			<path class="st7" d="M52.9,2.9h6.4v17.8h-6.4V2.9z"/>
			<path class="st7" d="M64.7,18.9v1.3c0,0.2,0,0.4-0.2,0.5c-0.1,0.1-0.3,0.2-0.4,0.2c-0.2,0-0.3-0.1-0.4-0.2
				c-0.1-0.1-0.2-0.2-0.2-0.4c0-0.1,0-0.2,0-0.4c0-0.1,0-0.2,0.1-0.4c0.1-0.6,0.1-1.2,0.1-1.8V2.1l13.8,10.9V5.4c0-0.4,0-0.8,0-1.2
				c0-0.4-0.1-0.7-0.1-0.8c0-0.4,0.2-0.6,0.5-0.6c0.1,0,0.3,0.1,0.4,0.2c0.1,0.1,0.2,0.3,0.2,0.4v0.4v1.8v15.8L64.7,10.7V18.9z"/>
			<path class="st7" d="M94.6,17.7c0.3,0,0.5,0.1,0.5,0.5c0,0.3-0.2,0.6-0.4,0.8c-1.5,1.4-3.4,2.1-5.5,2c-1.9,0.1-3.8-0.6-5.2-1.9
				c-1.4-1.2-2.2-3-2.2-4.9c-0.1-1.9,0.7-3.7,2-5c1.5-1.4,3.5-2.2,5.6-2.1C91,7,92.7,7.6,94,8.7c1.4,1.2,2.1,3,2.1,4.8
				c0,0.3,0,0.6,0,0.9h-8.3v5.4C88.3,20,89,20,89.6,20c1.4,0,2.8-0.5,3.9-1.5c0.2-0.2,0.3-0.3,0.5-0.5
				C94.1,17.8,94.3,17.7,94.6,17.7z M91.2,8.2C90.6,8,90,7.9,89.3,7.9c-0.6,0-1.1,0-1.6,0.1v5.4h3.5V8.2z"/>
			<path class="st7" d="M97.3,20.7c-0.1-0.1-0.1-0.3-0.1-0.4c0-0.2,0.1-0.5,0.2-0.7c0.1-0.2,0.2-0.4,0.3-0.5s0.1-0.2,0.2-0.4
				l0.5-1.1l5.2-15.5l5.6,10.8l5.4-10.8l6.4,18.6h-6.8l-3.1-9.6l-4.8,10.1l-5.1-9.1l-1.7,5.5c-0.2,0.5-0.4,1-0.6,1.6
				c-0.1,0.4-0.2,0.8-0.3,1c-0.2,0.5-0.4,0.8-0.8,0.7C97.6,20.9,97.4,20.8,97.3,20.7z"/>
			<path class="st7" d="M126.7,18.5c-1.5,0-2.6,0-3.2,0l-0.4,0.9c-0.1,0.3-0.2,0.5-0.3,0.8c-0.2,0.5-0.5,0.8-0.8,0.8
				c-0.1,0-0.3,0-0.4-0.1c-0.1-0.1-0.1-0.2-0.2-0.3c0-0.2,0.1-0.4,0.2-0.6c0.3-0.4,0.5-0.9,0.7-1.4c-0.7-0.1-1.1-0.3-1.1-0.6
				c0-0.4,0.2-0.5,0.6-0.5c0.3,0,0.6,0,0.9,0.1l6.3-15.3l8.6,18.7h-6.6l-1-2.2L126.7,18.5z M124,17.5c0.8,0.1,1.5,0.1,2.2,0.1h3.7
				l-3.2-6.8L124,17.5z"/>
		</g>
	</g>
</g>
</svg>
