<svg id="Layer_1" xmlns="http://www.w3.org/2000/svg" xmlns:xlink="http://www.w3.org/1999/xlink" viewBox="0 0 137.9 35.1"><style>.st0{fill:#272b2d}.st1{fill:#fff}.st2{fill:#5f6366}.st3{fill:none;stroke:#5f6366;stroke-width:1.15;stroke-miterlimit:10}.st4{fill:#c00000}.st5{fill:#02c000}.st6{fill:#e0df02}.st7{fill:#2c4d6d}</style><title>Asset 1</title><g id="Layer_2_1_"><g id="Layer_1-2"><path class="st0" d="M6.2 31.5c0 .5-.3 1-.7 1.4-.4.4-1 .5-1.5.5-.6 0-1.2-.2-1.6-.7-.4-.5-.6-1.2-.6-1.9v-1c0-.7.2-1.3.6-1.9.4-.5 1-.7 1.6-.7.5 0 1.1.1 1.5.5.4.4.6.9.7 1.4h-.5c0-.4-.2-.8-.5-1.1-.3-.3-.8-.4-1.2-.4-.5 0-1 .2-1.3.6-.3.5-.5 1-.5 1.6v1c0 .6.1 1.1.5 1.6.3.4.8.6 1.3.6.4 0 .8-.1 1.2-.4.3-.3.5-.7.5-1.1h.5zm.8-.4c0-.6.2-1.2.5-1.6.4-.5.9-.7 1.5-.7.5 0 1.1.2 1.4.6.4.5.6 1 .5 1.6v.1c0 .6-.2 1.2-.5 1.6-.4.4-.9.6-1.4.6-.5 0-1.1-.2-1.4-.6-.4-.5-.6-1-.6-1.6zm.5.1c0 .5.1.9.4 1.3.2.4.7.5 1.1.5.4 0 .8-.2 1.1-.5.3-.4.4-.8.4-1.3v-.1c0-.5-.2-.9-.5-1.3-.2-.3-.6-.5-1-.5s-.8.2-1.1.5c-.3.4-.4.8-.4 1.3v.1zm4.9-2.3v.8c.1-.3.3-.5.6-.7.3-.2.6-.2.9-.2.4 0 .8.1 1.1.4.3.4.4.9.4 1.4v2.7h-.5v-2.7c0-.4-.1-.7-.3-1-.2-.2-.5-.3-.8-.3-.3 0-.6.1-.8.3-.2.2-.4.5-.5.7v3.1H12V29h.4zm4.5 4.5v-4h-.7V29h.7v-.6c-.1-.7.4-1.4 1.2-1.5h.3c.2 0 .4 0 .5.1.2 0 .4.1.6.2l-.1.4c-.2-.1-.3-.1-.5-.2-.2 0-.4-.1-.5 0-.3 0-.6.1-.8.3-.2.2-.3.5-.2.8v.6h1v.4h-1v4h-.5zm2.9 0h-.5V29h.5v4.4zm1.1-2.2c0-.6.1-1.2.4-1.7.3-.4.8-.7 1.3-.6.6 0 1.1.3 1.4.7V27h.5v6.4H24v-.6c-.1.2-.3.4-.6.5-.3.1-.5.2-.8.2-.5 0-1-.2-1.2-.6-.3-.5-.5-1-.4-1.6l-.1-.1zm.5.1c0 .4.1.9.3 1.3.2.3.6.5 1 .5.3 0 .6-.1.8-.2.2-.1.4-.4.5-.6v-2.1c-.1-.2-.3-.5-.5-.6-.2-.2-.5-.2-.8-.2-.4 0-.8.2-1 .5-.2.3-.3.8-.3 1.4zm6.1 2.1c-.5 0-1.1-.2-1.4-.6-.4-.4-.6-1-.5-1.6V31c0-.6.2-1.1.5-1.5.3-.4.8-.6 1.3-.6s1 .2 1.3.5c.3.4.5.9.5 1.4v.4H26v.1c0 .5.1.9.4 1.2.3.3.7.5 1.1.5.5 0 .9-.2 1.3-.5l.2.3c-.2.2-.4.3-.6.4-.3.2-.6.2-.9.2zm-.1-4.1c-.4 0-.7.1-.9.4-.3.3-.5.6-.5 1h2.6v-.1c0-.4-.1-.7-.3-1-.3-.2-.6-.4-.9-.3zm3.1-.4v.8c.1-.3.3-.5.6-.7.3-.2.6-.2.9-.2.4 0 .8.1 1.1.4.3.4.4.9.4 1.4v2.7H33v-2.7c0-.4-.1-.7-.3-1-.2-.2-.5-.3-.8-.3-.3 0-.6.1-.8.3-.2.2-.4.5-.5.7v3.1h-.5V29h.4zm5.9 4.1c.3 0 .6-.1.8-.3.2-.2.4-.5.4-.8h.5c0 .4-.2.8-.5 1-.3.3-.8.4-1.2.4-.5 0-1-.2-1.4-.6-.3-.5-.5-1-.5-1.6v-.2c0-.6.1-1.1.5-1.6.7-.7 1.8-.8 2.6-.2.3.3.5.7.5 1.1h-.5c0-.3-.1-.6-.4-.9-.2-.2-.5-.3-.9-.3s-.8.2-1.1.5c-.2.4-.4.8-.3 1.3v.2c0 .5.1.9.3 1.3.4.5.8.7 1.2.7zm4.4.4c-.5 0-1.1-.2-1.4-.6-.4-.4-.6-1-.5-1.6V31c0-.6.2-1.1.5-1.6.3-.4.8-.6 1.3-.6s1 .2 1.3.5c.3.4.5.9.5 1.4v.4h-3.1v.1c0 .5.1.9.4 1.2.3.3.7.5 1.1.5.2 0 .5 0 .7-.1.2-.1.4-.2.6-.4l.2.3c-.2.2-.4.3-.6.4-.4.3-.7.3-1 .3zm-.1-4.1c-.4 0-.7.1-.9.4-.3.3-.4.7-.4 1.1H42v-.1c0-.4-.1-.7-.3-1-.3-.3-.7-.5-1-.4zm5.3-1.6h-.5V27h.5v.7zm0 5.7h-.5V29h.5v4.4zm1.8-4.5v.8c.1-.3.3-.5.6-.7.3-.2.5-.2.8-.2.4 0 .8.1 1.1.4.3.4.4.9.4 1.4v2.7h-.5v-2.7c.1-.4 0-.7-.2-1.1-.2-.2-.5-.3-.8-.3-.3 0-.6.1-.8.3-.2.2-.4.5-.5.7v3.1h-.5v-4.4h.4zm10.7 4.5H58l-3.4-5.1v5.1h-.5v-6h.5l3.4 5.1v-5.1h.5v6zm3.2 0c-.5 0-1.1-.2-1.4-.6-.4-.4-.6-1-.5-1.6V31c0-.6.2-1.1.5-1.6.3-.4.8-.6 1.3-.6s1 .2 1.3.5c.3.4.5.9.5 1.4v.4h-3.1v.1c0 .5.1.9.4 1.2.3.3.7.5 1.1.5.2 0 .5 0 .7-.1.2-.1.4-.2.6-.4l.2.3c-.2.2-.4.3-.6.4-.4.3-.7.3-1 .3zm-.1-4.1c-.4 0-.7.1-.9.4-.3.3-.4.7-.4 1.1h2.6v-.1c0-.4-.1-.7-.3-1-.3-.3-.7-.5-1-.4zm3.4-1.5v1.1h.9v.4H65v2.9c0 .2 0 .4.2.6.1.1.2.2.4.2h.5l.1.4c-.1 0-.2.1-.3.1h-.3c-.3 0-.5-.1-.7-.3-.2-.3-.3-.6-.2-.9v-2.9H64V29h.7v-1.1h.3zm2.9 4.1l.2.8.2-.8 1-3h.4l.9 3 .2.8.2-.8.8-3h.5L71 33.3h-.4l-1-3-.2-.8-.2.8-1 3h-.4l-1.3-4.4h.5l.9 3zm5.1-.8c0-.6.2-1.2.5-1.6.8-.8 2-.8 2.8 0 .4.5.6 1 .5 1.6v.1c0 .6-.2 1.2-.5 1.6-.4.4-.9.6-1.4.6-.5 0-1.1-.2-1.4-.6-.4-.5-.5-1-.5-1.6v-.1zm.5.1c0 .5.1.9.4 1.3.3.3.7.5 1.1.5.4 0 .8-.2 1.1-.5.3-.4.4-.8.4-1.3v-.1c0-.5-.1-.9-.4-1.3-.3-.3-.7-.5-1.1-.5-.4 0-.8.2-1.1.5-.3.4-.4.8-.4 1.3v.1zm6.5-1.8h-.4c-.3 0-.6.1-.8.3-.2.2-.3.4-.4.7v3.1H78V29h.4l.1.7c.1-.3.3-.5.5-.6.2-.1.5-.2.8-.2h.4l-.2.5zm1.9 1.8h-.6v2.2h-.5V27h.5v3.8h.5l1.7-1.9h.6l-1.8 2 2 2.4h-.6l-1.8-2.1zm5.8-3.8l2.2 5.3 2.2-5.3h.7v6h-.5v-5.3l-2.2 5.3h-.3l-2.2-5.2v5.2h-.5v-6h.6zm8.2 6c-.5 0-1.1-.2-1.4-.6-.4-.4-.6-1-.6-1.6V31c0-.6.2-1.1.6-1.6.3-.4.8-.6 1.3-.6s1 .2 1.3.5c.3.4.5.9.5 1.4v.4h-3.1v.1c0 .5.1.9.4 1.2.3.3.7.5 1.1.5.2 0 .5 0 .7-.1.2-.1.4-.2.6-.4l.2.3c-.2.2-.4.3-.6.4-.4.3-.7.3-1 .3zm-.1-4.1c-.4 0-.7.1-.9.4-.3.3-.4.7-.4 1.1h2.6v-.1c0-.4-.1-.7-.3-1-.3-.3-.6-.5-1-.4zm3.4-1.5v1.1h.9v.4h-.9v2.9c0 .2 0 .4.1.6.1.1.2.2.4.2h.4l.1.4c-.1 0-.2.1-.3.1h-.3c-.3 0-.5-.1-.7-.3-.2-.3-.3-.6-.2-.9v-2.9H98V29h.7v-1.1h.5zm4.8 5.6c0-.2-.1-.3-.1-.4v-.3c-.2.2-.4.4-.7.6-.3.2-.6.2-.9.2-.4 0-.7-.1-1-.3-.2-.2-.4-.6-.3-.9 0-.4.2-.8.5-1 .4-.3.9-.4 1.4-.4h1v-.5c0-.3-.1-.6-.3-.7-.2-.2-.5-.3-.9-.3-.3 0-.6.1-.8.3-.2.1-.3.4-.3.6h-.5c0-.4.2-.7.5-.9.3-.3.8-.4 1.2-.4.4 0 .9.1 1.2.4.3.3.5.7.4 1.1v2.7c0 .1.1.3.1.4h-.5zm-1.6-.4c.3 0 .7-.1.9-.2.3-.1.5-.4.6-.6v-.9h-1c-.4 0-.8.1-1.1.3-.2.2-.4.4-.4.7 0 .2.1.4.2.6.3 0 .5.1.8.1zm4.8-2.1h-2v-.4h2v.4zm4.2.8h-2.7l-.6 1.7h-.5l2.3-6h.5l2.2 6h-.5l-.7-1.7zm-2.5-.4h2.4l-1.2-3.2-1.2 3.2zm4.9-2.4v.8c.1-.3.3-.5.6-.7.3-.2.5-.2.8-.2.4 0 .8.1 1.1.4.3.4.4.9.4 1.4v2.7h-.5v-2.7c0-.4-.1-.7-.3-1-.2-.2-.5-.3-.8-.3-.3 0-.6.1-.8.3-.2.2-.4.4-.5.7v3.1h-.5V29h.5zm7 4.5c0-.2-.1-.3-.1-.4v-.3c-.2.2-.4.4-.7.6-.3.2-.6.2-.9.2-.4 0-.7-.1-1-.3-.2-.2-.4-.6-.3-.9 0-.4.2-.8.5-1 .4-.3.9-.4 1.4-.4h1v-.5c0-.3-.1-.6-.3-.7-.2-.2-.5-.3-.9-.3-.3 0-.6.1-.8.3-.2.1-.3.4-.3.6h-.4c0-.4.2-.7.5-.9.3-.3.8-.4 1.2-.4.4 0 .9.1 1.2.4.3.3.5.7.4 1.1v2.7c0 .1.1.3.1.4h-.6zm-1.6-.4c.3 0 .7-.1.9-.2.3-.1.5-.4.6-.6v-.9h-1c-.4 0-.8.1-1.1.3-.2.2-.4.4-.4.7 0 .2.1.4.2.6.3 0 .6.1.8.1zm3.9.4h-.5V27h.5v6.4zm2.6-1.2l.2.5 1.3-3.8h.6l-1.9 5.1c-.1.3-.3.5-.4.8-.2.2-.5.3-.8.3h-.4l.1-.4h.4c.2 0 .4-.1.5-.2.1-.2.3-.4.3-.6l.2-.6-1.7-4.4h.5l1.1 3.3zm5.5 0c0-.2-.1-.4-.2-.5-.3-.2-.6-.3-.9-.4-.4-.1-.8-.2-1.2-.5-.2-.2-.4-.5-.4-.8 0-.3.2-.7.4-.9.3-.2.7-.4 1.1-.4.4 0 .9.1 1.2.4.3.2.4.6.4 1h-.5c0-.2-.1-.5-.3-.6-.2-.2-.5-.3-.8-.3-.3 0-.6.1-.8.2-.2.1-.3.3-.3.5s.1.4.2.5c.3.2.6.3.9.4.4.1.8.2 1.2.5.3.2.4.5.4.8 0 .4-.2.7-.4.9-.4.2-.8.4-1.2.3-.5 0-.9-.1-1.3-.4-.3-.2-.5-.6-.5-.9h.5c0 .3.1.6.4.7.3.1.5.2.8.2.3 0 .6-.1.9-.2.2-.1.4-.3.4-.5zm2.1-4.5h-.5V27h.5v.7zm0 5.7h-.5V29h.5v4.4zm4-1.2c0-.2-.1-.4-.2-.5-.3-.2-.6-.3-.9-.4-.4-.1-.8-.2-1.2-.5-.3-.2-.4-.5-.4-.8 0-.3.2-.7.4-.9.3-.2.7-.4 1.1-.4.4 0 .9.1 1.2.4.3.2.4.6.4 1h-.5c0-.2-.1-.5-.3-.6-.2-.2-.5-.3-.8-.3-.3 0-.6.1-.8.2-.2.1-.3.3-.3.5s.1.4.2.5c.3.2.6.3.9.4.4.1.8.2 1.2.5.3.2.4.5.4.8 0 .4-.1.7-.4.9-.8.5-1.7.4-2.5 0-.3-.2-.5-.6-.5-.9h.5c0 .3.1.5.4.7.3.1.6.2.9.2.3 0 .6-.1.8-.2.4-.1.5-.4.4-.6z"/><image width="14" height="21" xlink:href="E399E432740F0B07.png" transform="translate(14 .25) scale(.9286)" overflow="visible" opacity=".15"/><path class="st1" d="M15.2 1.4c5.5.9 9.3 6 8.5 11.6-.3 1.8-1 3.5-2.2 4.9"/><path class="st2" d="M15.2 1.4c.9.1 1.8.3 2.6.6.8.4 1.6.8 2.4 1.3 1.4 1.1 2.6 2.6 3.2 4.3.6 1.7.8 3.6.5 5.4-.3 1.8-1.1 3.4-2.4 4.8 1-1.4 1.7-3.1 1.9-4.8.2-1.7 0-3.5-.6-5.1-.3-.8-.7-1.6-1.2-2.3-.5-.7-1.1-1.3-1.8-1.9-1.3-1.1-2.9-1.9-4.6-2.3z"/><image width="26" height="26" xlink:href="E399E432740F0B05.png" transform="scale(.9615)" overflow="visible" opacity=".15"/><circle class="st2" cx="11.7" cy="11.9" r="9.8"/><circle class="st3" cx="11.7" cy="11.9" r="9.8"/><image width="17" height="9" xlink:href="E399E432740F0B0B.png" transform="translate(17.444 17) scale(.8889)" overflow="visible" opacity=".15"/><path class="st2" d="M18.4 20.9c.8-.7 1.7-1.3 2.7-1.7 1-.4 2-.7 3.1-.8 1.1-.1 2.2 0 3.3.3.5.1 1.1.3 1.6.5s1 .5 1.5.8l-2.7 2.6c-4-3-6.9-2.6-9.5-1.7z"/><image width="19" height="21" xlink:href="E399E432740F0B0D.png" transform="translate(3 2.053) scale(.9474)" overflow="visible" opacity=".15"/><path class="st4" d="M9.5 12.7c-.1 0-.2-.1-.3-.2-.1-.2 0-.3.2-.4l5.2-1.7c.1-.1.3 0 .4.1s0 .3-.1.4h-.1l-5.2 1.7-.1.1z"/><path class="st5" d="M14.4 15.4h-.1c-.1-.1-.2-.2-.1-.4l1.4-3.1c.1-.1.2-.2.4-.2.1.1.2.2.2.4l-1.4 3.1c-.2.1-.3.2-.4.2zM8.1 11h-.2c-.1-.1-.2-.3-.1-.4l.6-1.1c.1-.1.2-.2.4-.1.1.1.2.2.1.4l-.6 1.1c0 .1-.1.1-.2.1zm6.7-1.6h-.1l-1.8-.9c-.1-.1-.2-.3-.1-.4.1-.1.3-.2.4-.1l1.8.8c.1.1.2.3.1.4 0 .1-.1.2-.3.2z"/><path class="st6" d="M11.1 16.4h-.2L9 15.1c-.1-.1-.2-.3-.1-.4.1-.1.3-.2.4-.1l1.9 1.3c.1.1.2.3.1.4 0 .1-.1.1-.2.1z"/><path class="st1" d="M12.6 5.8c-.5-1.4-2-2.2-3.4-1.7-.7.3-1.2.7-1.6 1.4-.6 1.3-.1 2.9 1.2 3.6.4.2.8.3 1.2.3.3 0 .6 0 .9-.1 1.5-.5 2.2-2 1.7-3.5zm5.5 3.8c-.1-.4-.4-.7-.7-.8-.7-.3-1.6-.1-1.9.6-.4.7-.1 1.6.6 1.9.2.1.4.2.6.2.5 0 1.1-.3 1.3-.8.2-.4.2-.8.1-1.1zm-3.9 6.2c-.5-.2-1.1-.3-1.6-.1-.5.2-.9.5-1.2 1-.2.5-.3 1.1-.1 1.6.2.5.5.9 1 1.2.3.1.6.2.9.2.8 0 1.5-.4 1.8-1.1.2-.5.3-1 .1-1.5 0-.6-.4-1.1-.9-1.3zm-6.4-4.5c-1.1-.5-2.4-.1-3 1-.5 1.1-.1 2.4 1 3 .3.2.7.2 1 .2 1.2 0 2.3-1 2.3-2.3-.1-.8-.6-1.5-1.3-1.9z"/><path class="st7" d="M49.5 17.7c.3 0 .5.2.5.6s-.2.6-.7 1c-.7.5-1.5.9-2.2 1.1-1.2.4-2.4.5-3.7.5-1.3 0-2.5-.2-3.7-.7-1.1-.4-2.2-1.1-3-1.9-1.8-1.8-2.7-4.2-2.6-6.7 0-1.2.2-2.5.7-3.6.5-1.1 1.2-2 2.1-2.8 1.9-1.7 4.4-2.6 7-2.5 1.4 0 2.8.2 4.2.8 1.3.6 1.9 1 1.9 1.4 0 .2-.1.3-.2.4-.1.1-.2.2-.3.2-.3 0-.6-.1-.7-.4-.3-.3-.5-.5-.9-.7-.4-.2-.8-.3-1.3-.5-.8-.3-1.6-.4-2.5-.4-.6 0-1.2 0-1.9.1v16.2c.5.1 1 .1 1.6.1.5 0 1 0 1.4-.1.5-.1.9-.2 1.4-.3.9-.2 1.7-.7 2.3-1.3.1-.2.3-.3.4-.5-.1.1 0 0 .2 0zm3.4-14.8h6.4v17.8h-6.4V2.9zm11.8 16v1.3c0 .2 0 .4-.2.5-.1.1-.3.2-.4.2-.2 0-.3-.1-.4-.2-.1-.1-.2-.2-.2-.4v-.4c0-.1 0-.2.1-.4.1-.6.1-1.2.1-1.8V2.1L77.5 13V4.2c0-.4-.1-.7-.1-.8 0-.4.2-.6.5-.6.1 0 .3.1.4.2.1.1.2.3.2.4v18L64.7 10.7v8.2zm29.9-1.2c.3 0 .5.1.5.5 0 .3-.2.6-.4.8-1.5 1.4-3.4 2.1-5.5 2-1.9.1-3.8-.6-5.2-1.9-1.4-1.2-2.2-3-2.2-4.9-.1-1.9.7-3.7 2-5 1.5-1.4 3.5-2.2 5.6-2.1 1.6-.1 3.3.5 4.6 1.6 1.4 1.2 2.1 3 2.1 4.8v.9h-8.3v5.4c.5.2 1.2.2 1.8.2 1.4 0 2.8-.5 3.9-1.5l.5-.5c.1-.2.3-.3.6-.3zm-3.4-9.5c-.6-.2-1.2-.3-1.9-.3-.6 0-1.1 0-1.6.1v5.4h3.5V8.2zm6.1 12.5c-.1-.1-.1-.3-.1-.4 0-.2.1-.5.2-.7.1-.2.2-.4.3-.5s.1-.2.2-.4l.5-1.1 5.2-15.5 5.6 10.8 5.4-10.8 6.4 18.6h-6.8l-3.1-9.6-4.8 10.1-5.1-9.1-1.7 5.5c-.2.5-.4 1-.6 1.6-.1.4-.2.8-.3 1-.2.5-.4.8-.8.7-.2 0-.4-.1-.5-.2zm29.4-2.2h-3.2l-.4.9c-.1.3-.2.5-.3.8-.2.5-.5.8-.8.8-.1 0-.3 0-.4-.1-.1-.1-.1-.2-.2-.3 0-.2.1-.4.2-.6.3-.4.5-.9.7-1.4-.7-.1-1.1-.3-1.1-.6 0-.4.2-.5.6-.5.3 0 .6 0 .9.1L129 2.3l8.6 18.7H131l-1-2.2-3.3-.3zm-2.7-1c.8.1 1.5.1 2.2.1h3.7l-3.2-6.8-2.7 6.7z"/></g></g></svg>